<?xml version="1.0" standalone="no"?>
<!DOCTYPE svg PUBLIC "-//W3C//DTD SVG 20010904//EN"
 "http://www.w3.org/TR/2001/REC-SVG-20010904/DTD/svg10.dtd">
<svg version="1.0" xmlns="http://www.w3.org/2000/svg"
 width="640.000000pt" height="640.000000pt" viewBox="0 0 640.000000 640.000000"
 preserveAspectRatio="xMidYMid meet">
<metadata>
Created by potrace 1.14, written by Peter Selinger 2001-2017
</metadata>
<g transform="translate(0.000000,640.000000) scale(0.100000,-0.100000)"
fill="#000000" stroke="none">
<path d="M0 3205 l0 -3195 3200 0 3200 0 0 3195 0 3195 -3200 0 -3200 0 0
-3195z m3525 2986 c169 -17 268 -30 305 -40 19 -6 49 -12 65 -15 124 -21 344
-87 563 -170 59 -22 367 -180 422 -216 25 -16 52 -33 60 -37 67 -31 328 -245
508 -416 30 -29 169 -189 195 -224 15 -21 42 -56 58 -78 33 -43 154 -223 179
-266 16 -28 134 -266 176 -354 13 -28 24 -56 24 -63 0 -7 4 -20 10 -30 5 -9
21 -55 35 -102 14 -47 30 -94 34 -105 26 -59 41 -124 58 -250 3 -22 9 -44 14
-49 5 -6 9 -31 9 -56 0 -25 4 -50 9 -56 23 -24 42 -460 29 -689 -7 -110 -33
-297 -58 -410 -6 -27 -13 -62 -14 -77 -4 -30 -28 -118 -52 -188 -9 -25 -25
-74 -36 -110 -11 -36 -29 -84 -39 -107 -11 -24 -19 -46 -19 -49 0 -9 -34 -83
-96 -208 -53 -106 -65 -128 -107 -193 -15 -24 -27 -45 -27 -47 0 -9 -89 -133
-105 -146 -8 -7 -15 -17 -15 -22 0 -6 -12 -25 -28 -44 -15 -18 -40 -52 -57
-75 -62 -88 -407 -419 -509 -489 -21 -14 -58 -42 -84 -63 -26 -21 -56 -43 -67
-48 -11 -5 -45 -25 -75 -44 -51 -32 -159 -92 -240 -134 -91 -47 -314 -141
-336 -141 -8 0 -22 -4 -32 -10 -22 -12 -125 -46 -182 -60 -102 -25 -117 -29
-155 -40 -37 -11 -134 -27 -300 -51 -74 -10 -349 -29 -425 -29 -79 0 -352 18
-430 29 -169 22 -270 41 -375 71 -22 6 -56 15 -75 19 -51 12 -296 95 -355 121
-169 73 -328 153 -407 205 -21 14 -40 25 -42 25 -4 0 -102 66 -186 126 -74 53
-179 145 -327 289 -130 126 -180 182 -275 310 -4 6 -19 25 -34 42 -33 42 -114
162 -126 188 -5 11 -24 45 -43 75 -39 62 -98 180 -145 290 -18 41 -37 83 -42
94 -5 10 -27 75 -49 145 -22 69 -47 149 -56 176 -26 84 -60 269 -69 385 -3 36
-9 74 -14 85 -21 45 -27 374 -11 550 17 184 55 435 81 535 19 72 81 266 90
282 6 10 10 25 10 35 0 28 155 360 212 453 40 66 172 265 193 291 11 14 31 41
45 60 14 19 58 68 97 110 40 41 73 80 73 86 0 7 14 22 31 35 17 13 76 64 130
113 185 169 182 167 364 288 44 30 103 67 130 83 48 29 307 157 370 184 47 20
356 122 400 132 112 26 213 47 255 54 122 19 178 26 260 30 52 3 99 10 105 15
12 12 376 5 520 -10z"/>
<path d="M2985 5994 c-522 -52 -925 -188 -1346 -457 -295 -188 -596 -480 -801
-777 -50 -73 -165 -267 -190 -320 -89 -191 -110 -243 -153 -375 -29 -89 -45
-144 -75 -265 -5 -19 -19 -93 -32 -165 -21 -117 -23 -160 -23 -435 0 -347 8
-421 81 -705 144 -560 481 -1078 949 -1459 280 -227 638 -417 975 -516 307
-90 520 -120 852 -120 399 0 723 60 1078 201 88 35 345 162 404 199 23 15 72
46 111 71 234 148 519 414 700 653 268 352 458 786 526 1201 85 512 29 1039
-158 1499 -93 229 -221 454 -367 646 -108 141 -121 156 -260 295 -306 304
-634 512 -1058 669 -78 29 -334 101 -393 110 -22 4 -80 13 -130 22 -116 19
-390 44 -480 43 -38 -1 -133 -7 -210 -15z m535 -78 c138 -17 326 -51 395 -70
182 -52 260 -77 330 -106 11 -4 36 -14 55 -21 76 -27 351 -172 451 -237 131
-86 212 -148 354 -273 304 -267 559 -630 709 -1009 21 -52 42 -103 47 -112 5
-10 9 -26 9 -36 0 -10 3 -22 7 -25 10 -11 51 -169 79 -302 92 -451 67 -884
-80 -1365 -63 -206 -209 -497 -354 -704 -344 -494 -877 -883 -1457 -1061 -327
-101 -674 -144 -1004 -124 -542 32 -1042 205 -1472 510 -513 363 -878 872
-1057 1474 -32 107 -57 222 -84 390 -18 110 -18 615 0 710 7 39 20 108 28 155
109 600 479 1209 971 1601 79 63 287 209 298 209 4 0 19 8 33 18 76 53 301
161 444 213 236 87 431 134 668 159 58 7 107 14 109 16 11 10 418 2 521 -10z"/>
<path d="M2960 5819 c-561 -53 -1081 -274 -1525 -649 -53 -44 -239 -233 -286
-290 -148 -177 -239 -316 -339 -515 -264 -520 -343 -1108 -228 -1685 13 -69
75 -298 88 -325 5 -11 18 -46 30 -79 55 -156 164 -363 273 -526 106 -157 173
-236 332 -396 251 -253 492 -415 857 -578 120 -53 351 -123 518 -156 353 -70
785 -67 1120 9 25 6 59 13 75 17 265 58 622 217 887 396 300 201 617 544 796
858 175 308 277 610 327 966 18 127 21 527 4 637 -18 127 -40 240 -65 342
-139 556 -495 1087 -969 1440 -358 268 -758 438 -1195 509 -213 35 -493 45
-700 25z m631 -255 c64 -14 75 -22 69 -49 -1 -5 -22 -97 -46 -203 -47 -207
-50 -232 -33 -264 25 -46 127 -59 163 -20 12 15 50 156 77 287 25 126 37 176
41 181 6 5 154 -23 170 -32 11 -7 10 -41 -2 -78 -5 -17 -21 -85 -35 -151 -44
-205 -54 -238 -83 -284 -57 -92 -149 -124 -283 -96 -201 40 -278 150 -239 341
5 27 18 87 29 134 60 268 59 266 90 255 7 -3 44 -12 82 -21z m-505 -32 c55
-28 109 -92 136 -161 17 -44 22 -78 22 -161 1 -92 -2 -110 -23 -145 -66 -114
-151 -160 -346 -186 -49 -6 -107 -15 -128 -19 -43 -9 -67 7 -67 45 0 12 -11
96 -25 186 -13 90 -29 200 -36 244 -6 44 -15 99 -21 123 -7 25 -7 47 -2 52 17
16 268 49 359 46 69 -2 100 -7 131 -24z m-710 -357 l10 -250 35 -60 c20 -33
42 -71 50 -83 13 -21 12 -25 -6 -38 -32 -24 -137 -84 -146 -84 -4 0 -30 39
-57 88 l-49 87 -134 82 c-228 140 -309 194 -304 203 12 19 177 100 188 93 11
-7 108 -75 229 -163 20 -14 21 -13 15 50 -4 36 -9 108 -12 160 l-6 95 68 37
c113 62 106 74 119 -217z m2134 39 c103 -30 195 -105 242 -197 26 -51 38 -184
18 -197 -13 -8 -116 12 -157 30 -18 7 -23 18 -23 47 0 51 -31 98 -81 124 -82
41 -162 18 -216 -65 -56 -83 -41 -170 40 -230 27 -20 88 -26 153 -15 15 3 34
-12 72 -56 29 -33 52 -66 52 -73 0 -7 -21 -23 -47 -35 -70 -32 -208 -31 -277
3 -71 34 -157 118 -191 187 -25 50 -29 69 -28 143 0 73 4 93 28 140 50 99 113
156 207 190 65 24 137 25 208 4z m-2811 -294 c19 -5 38 -15 42 -21 3 -6 -5
-40 -19 -75 l-25 -64 -46 0 c-57 0 -103 -27 -120 -69 -12 -26 -11 -34 3 -56 9
-14 24 -25 34 -25 21 0 73 31 128 76 52 43 120 74 164 74 50 0 131 -41 162
-82 60 -79 58 -172 -6 -272 -74 -115 -178 -182 -273 -174 -79 7 -87 19 -59 98
l23 65 57 3 c51 3 61 7 97 43 41 41 48 71 25 102 -26 33 -69 21 -146 -43 -114
-94 -213 -102 -300 -24 -49 45 -70 90 -70 154 0 119 119 260 245 291 43 10 46
10 84 -1z m3415 -230 c25 -38 46 -75 46 -82 0 -7 -48 -44 -107 -83 l-107 -70
161 -3 c181 -3 160 7 238 -106 28 -40 43 -71 37 -75 -5 -3 -61 -3 -124 1 -62
3 -136 7 -165 7 l-52 1 -93 -190 c-51 -104 -98 -190 -104 -190 -6 0 -36 37
-65 81 l-53 82 62 118 62 119 -52 2 c-79 2 -86 0 -133 -32 -24 -17 -47 -30
-52 -30 -4 1 -30 33 -57 72 -33 48 -46 76 -40 84 11 16 536 363 551 364 0 0
22 -31 47 -70z m-1614 16 c147 -28 182 -36 273 -66 549 -182 958 -645 1079
-1221 17 -85 21 -139 22 -299 1 -121 -4 -222 -12 -265 -17 -90 -41 -195 -51
-220 -5 -11 -21 -54 -36 -95 -67 -181 -193 -382 -333 -531 -76 -81 -209 -195
-217 -187 -3 3 6 31 21 64 17 39 51 85 103 139 226 237 365 512 416 825 22
137 20 379 -4 511 -90 488 -407 908 -841 1113 -256 121 -527 171 -787 147 -70
-7 -144 -16 -163 -21 -175 -43 -229 -59 -245 -72 -5 -4 -15 -8 -21 -8 -55 0
-349 -180 -460 -282 -270 -247 -420 -519 -496 -898 -17 -87 -17 -393 1 -490
47 -268 148 -497 307 -701 29 -36 44 -65 44 -85 0 -16 16 -55 35 -87 20 -33
30 -57 23 -55 -23 8 -195 207 -251 291 -142 212 -227 439 -266 715 -50 341 53
760 263 1075 193 291 500 525 831 636 173 58 309 79 510 80 114 0 207 -4 255
-13z m-2096 -397 c73 -34 120 -87 136 -153 14 -60 7 -106 -31 -203 -12 -29
-19 -58 -16 -65 3 -7 35 -24 71 -37 36 -14 66 -31 66 -38 0 -19 -63 -163 -71
-163 -7 0 -268 101 -324 125 -16 7 -84 34 -150 61 -147 58 -150 61 -131 100 8
16 37 85 65 153 67 166 104 214 189 242 45 14 143 3 196 -22z m1886 -87 l23
-18 -12 -185 c-6 -101 -11 -193 -11 -204 0 -19 -10 -22 -102 -33 -57 -6 -127
-18 -156 -25 -45 -12 -64 -12 -123 -1 -38 7 -74 16 -79 19 -20 13 -8 140 14
148 16 6 103 -24 182 -64 35 -18 67 -30 70 -26 3 3 -36 54 -88 114 -168 194
-171 201 -113 252 44 38 66 39 101 4 38 -38 129 -179 165 -257 17 -37 34 -64
38 -62 4 3 1 75 -5 162 -8 103 -9 164 -3 176 13 24 70 24 99 0z m2114 -216
c49 -20 103 -81 128 -145 28 -72 31 -210 6 -257 -17 -31 -72 -84 -87 -84 -5 0
-27 28 -49 62 l-41 62 24 28 c32 38 40 86 22 130 -18 44 -49 56 -82 34 -24
-16 -25 -20 -25 -142 0 -145 -14 -187 -78 -228 -111 -73 -237 -48 -305 59 -67
105 -88 255 -47 335 23 46 68 90 91 90 14 0 89 -95 89 -113 0 -3 -11 -23 -25
-43 -61 -89 2 -227 79 -171 14 10 17 32 19 144 2 130 2 132 33 170 58 73 166
104 248 69z m-1899 -261 c147 -27 206 -48 320 -114 76 -44 203 -171 234 -234
65 -135 66 -257 4 -397 -22 -50 -117 -160 -139 -160 -14 0 -34 58 -34 101 0
15 -6 32 -13 38 -8 6 -60 16 -117 22 -99 10 -108 13 -199 65 -98 56 -140 65
-184 43 -12 -7 -60 -40 -107 -74 -108 -79 -129 -90 -215 -104 -160 -28 -185
-34 -204 -53 -25 -23 -26 -30 -4 -91 29 -81 2 -85 -103 -14 l-41 28 -16 127
c-26 202 -30 291 -17 381 12 90 8 103 -32 105 -34 2 -37 50 -6 83 76 81 230
175 349 214 146 46 375 62 524 34z m555 -150 c19 -39 57 -94 84 -123 97 -103
153 -198 182 -305 18 -68 17 -255 -1 -332 -20 -82 -75 -190 -129 -250 -43 -49
-45 -49 -60 -30 -8 11 -23 44 -31 74 -13 43 -30 68 -81 119 -35 35 -64 66 -64
69 0 2 13 15 28 28 46 38 111 143 132 213 36 116 23 247 -36 364 -21 41 -124
156 -178 197 -27 20 -4 38 29 23 36 -16 43 -15 50 9 12 36 38 16 75 -56z
m-1530 -185 c35 25 57 21 62 -12 2 -16 10 -23 25 -23 33 0 35 -8 22 -75 -14
-70 -2 -248 32 -497 25 -187 25 -277 -2 -355 -11 -34 -30 -75 -41 -91 -30 -42
-8 -57 25 -18 50 60 67 128 67 271 0 72 2 130 5 130 3 0 30 -14 60 -31 l55
-31 -8 -41 c-40 -223 60 -330 363 -389 94 -18 460 -18 535 0 177 43 332 137
367 223 8 22 19 39 23 39 4 0 23 -37 43 -82 75 -177 97 -293 78 -406 -25 -150
-99 -268 -205 -327 -136 -76 -344 -148 -511 -176 -109 -19 -461 -19 -535 0
-83 21 -256 113 -332 175 -140 116 -208 253 -208 414 0 55 13 128 24 139 3 3
19 8 36 12 47 9 36 26 -18 27 -26 0 -61 4 -79 8 -49 11 -106 81 -134 162 -21
61 -23 86 -22 224 1 205 28 320 116 495 24 49 45 108 53 153 7 40 18 80 25 89
12 13 15 13 31 -7 l18 -22 30 22z m1008 -365 c71 -50 140 -75 211 -75 33 0 71
-4 84 -9 25 -10 27 -16 42 -104 5 -29 15 -44 51 -70 97 -69 121 -95 139 -153
34 -108 1 -185 -110 -259 -30 -20 -79 -45 -108 -57 -28 -11 -61 -24 -72 -28
-92 -37 -427 -43 -575 -11 -193 43 -269 80 -318 159 -21 34 -22 45 -18 132 3
52 8 120 12 152 3 34 1 64 -6 77 -26 50 21 79 155 96 96 13 143 34 262 115
109 75 121 81 158 77 26 -2 60 -18 93 -42z m-2404 -193 l28 -82 99 0 c79 0 99
-3 99 -14 0 -8 -4 -16 -9 -18 -9 -3 -95 -74 -123 -101 -10 -10 -16 -22 -13
-27 6 -10 44 -149 45 -162 0 -17 -24 -6 -83 35 -34 24 -67 46 -73 50 -6 4 -49
-16 -94 -43 -46 -28 -85 -50 -87 -50 -9 0 0 51 17 104 11 33 20 67 20 76 0 9
-24 33 -53 53 -30 21 -64 48 -77 62 l-23 25 100 0 c68 0 104 4 111 13 5 6 22
47 38 90 16 42 33 76 39 74 5 -2 23 -40 39 -85z m4239 -2 l25 -75 101 -3 c71
-2 101 -6 101 -15 0 -7 -32 -36 -70 -66 -47 -37 -70 -61 -70 -75 1 -19 19 -97
36 -153 10 -34 -8 -29 -87 22 -38 25 -75 45 -82 45 -7 0 -46 -20 -87 -45 -40
-25 -77 -42 -81 -38 -4 4 1 35 12 68 35 107 34 112 -46 172 -38 29 -71 57 -73
63 -2 6 34 10 98 10 l101 0 29 66 c17 36 30 71 30 78 0 17 23 38 31 29 4 -5
18 -42 32 -83z m-3113 -819 c52 -26 112 -54 133 -61 21 -6 41 -19 44 -29 17
-54 69 -143 109 -189 25 -29 44 -55 41 -59 -11 -10 -178 79 -255 136 -79 59
-176 158 -194 197 -12 26 -5 54 14 54 8 0 56 -22 108 -49z m-438 -14 c101 -50
215 -188 206 -250 -3 -20 -84 -74 -114 -76 -7 -1 -19 16 -27 37 -31 76 -97
125 -171 125 -91 0 -155 -54 -177 -150 -10 -43 -9 -54 9 -88 35 -69 104 -115
171 -115 16 0 32 -4 36 -9 9 -15 -47 -120 -67 -127 -25 -8 -135 22 -183 51
-58 34 -116 94 -145 151 -29 58 -40 193 -20 247 47 125 108 185 223 223 68 22
193 13 259 -19z m2843 -38 c25 -23 45 -47 45 -54 0 -7 -15 -25 -34 -41 -63
-55 -156 -143 -156 -149 0 -13 45 -65 56 -65 7 0 48 29 93 65 44 36 87 65 95
65 17 0 86 -69 86 -87 0 -6 -38 -42 -85 -80 -46 -37 -84 -72 -84 -78 -1 -5 14
-27 32 -48 l32 -38 105 85 c58 47 112 85 120 86 17 0 100 -79 99 -95 -1 -22
-376 -335 -401 -335 -7 0 -22 13 -32 28 -21 28 -206 264 -308 389 -32 40 -58
76 -58 81 0 4 30 33 68 64 37 31 114 99 172 152 58 53 106 96 108 96 1 0 23
-19 47 -41z m-2374 -320 c82 -27 150 -79 199 -152 44 -65 55 -115 48 -215 -6
-84 -40 -153 -103 -211 -134 -124 -319 -130 -472 -17 -149 110 -186 312 -85
456 100 141 251 192 413 139z m385 -25 c35 -17 50 -31 41 -40 -6 -7 -138 46
-156 61 -18 18 67 2 115 -21z m1562 -14 c17 -27 32 -54 32 -59 0 -5 -56 -37
-125 -71 -69 -33 -125 -62 -125 -64 0 -8 29 -71 35 -77 6 -6 145 44 193 70 29
16 41 7 72 -55 l24 -46 -22 -17 c-13 -9 -61 -32 -107 -51 -47 -18 -85 -39 -85
-46 0 -10 28 -84 34 -91 2 -2 63 22 136 52 73 31 137 52 140 48 4 -5 20 -32
35 -60 23 -43 26 -55 15 -68 -7 -8 -16 -15 -21 -15 -5 0 -46 -18 -92 -41 -127
-63 -313 -140 -342 -142 -25 -2 -29 5 -66 98 -35 88 -62 155 -90 220 -28 65
-99 252 -99 261 0 6 35 26 78 44 42 18 133 61 202 96 69 35 130 64 135 64 6 0
25 -23 43 -50z m-1468 -170 c125 -27 312 -60 342 -60 15 0 30 -5 33 -11 8 -12
-4 -140 -14 -158 -6 -9 -34 -7 -121 9 -156 28 -154 28 -170 -20 -9 -26 -10
-44 -4 -50 6 -6 59 -18 119 -28 l110 -18 -2 -45 c-2 -24 -5 -59 -8 -76 -5 -30
-9 -33 -43 -33 -20 0 -55 4 -77 9 -22 5 -63 12 -90 15 l-51 6 -19 -77 c-10
-43 -24 -90 -31 -104 l-13 -26 -63 13 c-81 16 -136 33 -142 43 -3 4 3 41 14
82 78 310 131 516 135 527 5 14 33 15 95 2z m938 -47 c6 -27 14 -64 18 -84 l6
-36 -79 -12 c-43 -7 -105 -15 -138 -19 l-60 -7 -3 -40 c-4 -64 -1 -65 127 -49
63 8 117 11 120 8 10 -9 29 -139 22 -146 -8 -10 -165 -38 -209 -38 l-33 0 3
-112 3 -113 -103 -9 c-62 -5 -107 -5 -112 0 -5 5 -14 79 -20 164 -5 85 -15
226 -20 314 -6 87 -9 161 -6 164 3 2 47 9 98 15 51 5 145 18 208 27 174 26
164 28 178 -27z"/>
<path d="M2840 5401 c-22 -4 -35 -12 -34 -21 0 -14 8 -68 38 -265 l12 -79 49
3 c55 3 90 18 120 51 30 33 28 178 -3 238 -38 71 -86 90 -182 73z"/>
<path d="M1234 4136 c-22 -10 -37 -28 -53 -66 -12 -28 -21 -53 -19 -54 5 -4
70 -33 112 -50 58 -24 70 -21 84 24 22 73 11 123 -31 139 -49 18 -63 19 -93 7z"/>
<path d="M3652 3425 c-62 -15 -98 -38 -129 -85 -30 -43 -29 -91 2 -140 69
-109 253 -155 381 -94 67 32 94 70 94 135 0 86 -80 157 -212 188 -57 13 -68
13 -136 -4z m215 -47 c58 -27 113 -92 113 -133 0 -51 -38 -97 -100 -122 -102
-41 -217 -21 -299 53 -43 39 -46 45 -46 92 0 55 17 82 70 110 70 36 184 37
262 0z"/>
<path d="M3676 3281 c-10 -16 5 -42 23 -39 21 4 21 42 -1 46 -9 2 -19 -1 -22
-7z"/>
<path d="M2933 3420 c-113 -26 -213 -126 -213 -210 0 -90 96 -165 225 -177
143 -13 300 70 335 177 38 114 -87 222 -254 219 -34 -1 -75 -4 -93 -9z m221
-41 c141 -66 131 -211 -20 -285 -140 -69 -343 -25 -372 79 -15 55 -3 97 43
142 57 57 128 84 228 84 58 1 88 -4 121 -20z"/>
<path d="M3015 3250 c-4 -7 -3 -16 3 -22 14 -14 45 -2 40 15 -6 16 -34 21 -43
7z"/>
<path d="M3297 2974 c-7 -7 50 -64 63 -64 15 0 -2 40 -23 55 -24 17 -31 18
-40 9z"/>
<path d="M3522 2958 c-14 -14 -16 -38 -2 -38 9 0 30 31 30 44 0 10 -15 7 -28
-6z"/>
<path d="M2165 1498 c-42 -15 -78 -51 -110 -110 -89 -163 81 -313 209 -184 52
51 76 102 76 156 0 60 -26 107 -71 130 -42 22 -60 23 -104 8z"/>
</g>
</svg>
